<?xml version="1.0" encoding="UTF-8"?>
<svg version="1.1" xmlns="http://www.w3.org/2000/svg" width="708" height="730">
<path d="M0 0 C12.87 0 25.74 0 39 0 C39 27.72 39 55.44 39 84 C182.55 84 326.1 84 474 84 C474 56.28 474 28.56 474 0 C486.87 0 499.74 0 513 0 C513 67.65 513 135.3 513 205 C500.13 205 487.26 205 474 205 C474 177.94 474 150.88 474 123 C330.45 123 186.9 123 39 123 C39 150.06 39 177.12 39 205 C26.13 205 13.26 205 0 205 C0 137.35 0 69.7 0 0 Z " fill="#B4D8FF" transform="translate(98,0)"/>
<path d="M0 0 C12.87 0 25.74 0 39 0 C39.00410889 5.78370117 39.00821777 11.56740234 39.01245117 17.52636719 C39.02965271 36.64114337 39.07391006 55.75578629 39.13209057 74.87047958 C39.16670363 86.4590845 39.19209127 98.04757092 39.19555664 109.63623047 C39.19860165 119.74011048 39.21916434 129.84377925 39.26052457 139.94757771 C39.2818074 145.29461297 39.29447937 150.64134827 39.28615379 155.98842621 C39.27858389 161.0282663 39.29455576 166.06750008 39.32806015 171.10722923 C39.33625805 172.95016125 39.33608541 174.79315396 39.32659721 176.63607979 C39.26282735 190.39163522 40.74261987 201.70940651 50.76953125 212.09375 C62.64530528 222.24327316 77.74937516 221.29284851 92.42773438 221.25878906 C94.39325591 221.26150234 96.35877643 221.26506516 98.32429504 221.26940918 C103.64034602 221.27849538 108.95631902 221.2750045 114.27237129 221.26865101 C119.84772062 221.26357147 125.42306348 221.26828788 130.99841309 221.27142334 C140.35946852 221.27505729 149.72049234 221.27027886 159.08154297 221.26074219 C169.88905479 221.24985875 180.69649114 221.25338473 191.50400114 221.264395 C200.79940545 221.27348413 210.0947871 221.2747452 219.39019442 221.26951766 C224.93479937 221.26640691 230.47936891 221.265964 236.02397156 221.27259064 C241.23773909 221.27838713 246.45140974 221.27432513 251.66516685 221.26280212 C253.57346626 221.26016784 255.48177388 221.26089947 257.39006996 221.26532745 C275.43802136 221.47979338 275.43802136 221.47979338 292 215 C292.59554688 214.63648438 293.19109375 214.27296875 293.8046875 213.8984375 C300.30000063 209.19294399 304.59080298 200.42705061 306.57653713 192.77966022 C307.11544731 189.24219022 307.15340154 185.75457236 307.15821838 182.18559265 C307.16562535 181.01537204 307.16562535 181.01537204 307.17318195 179.82151061 C307.18852158 177.21133144 307.19690798 174.6011768 307.20532227 171.9909668 C307.21490357 170.11832972 307.2249138 168.2456948 307.23532104 166.37306213 C307.26234883 161.29088944 307.28336993 156.20870748 307.30332303 151.12650275 C307.32519568 145.81469012 307.35257812 140.50290598 307.37937927 135.19111633 C307.42928884 125.13316373 307.47423413 115.07519529 307.51740164 105.01721174 C307.56678883 93.56626702 307.62170147 82.1153509 307.67708123 70.66443384 C307.79087465 47.10964792 307.89699003 23.55483571 308 0 C320.87 0 333.74 0 347 0 C347.09048322 25.00086046 347.16408826 50.00158722 347.20724869 75.00257015 C347.2278263 86.612369 347.25585466 98.22205848 347.30175781 109.83178711 C347.34177303 119.95722629 347.36746765 130.08258622 347.37635398 140.20810229 C347.38154395 145.56369475 347.39364109 150.91906057 347.42292023 156.27458 C347.45032193 161.32823315 347.4583956 166.38156899 347.45243073 171.43528938 C347.45352 173.27776954 347.46132499 175.1202617 347.4768219 176.962677 C347.5935098 191.56735831 346.39202717 206.34861983 339.25 219.4375 C338.90565918 220.09306885 338.56131836 220.7486377 338.20654297 221.42407227 C328.48331069 239.37380461 312.31960542 251.84956382 293 258 C279.92891649 261.51249381 266.35567268 261.14947082 252.93701172 261.14526367 C251.02210932 261.14826036 249.10720753 261.15166405 247.19230652 261.15544128 C242.01635844 261.16423464 236.84042693 261.16661745 231.6644721 261.16725707 C228.42246296 261.16797034 225.18045797 261.17010991 221.93844986 261.17275429 C210.60447169 261.181993 199.27050525 261.18609111 187.93652344 261.18530273 C177.41031278 261.18470267 166.88415349 261.19524434 156.35795581 261.2110464 C147.28917575 261.22417016 138.22041237 261.22948459 129.15162289 261.22884732 C123.74932681 261.22859371 118.34707641 261.23136859 112.94478989 261.24202538 C107.8573941 261.25178788 102.77008688 261.25173034 97.68268776 261.24450874 C95.82892666 261.24347288 93.9751598 261.24576543 92.12140846 261.2518692 C65.66334963 261.33325585 42.2830305 258.30360967 22.203125 239.1953125 C21.47609375 238.47085938 20.7490625 237.74640625 20 237 C19.37609375 236.39929688 18.7521875 235.79859375 18.109375 235.1796875 C5.38538655 221.93986168 -0.19189477 202.79912107 -0.12025452 184.83119202 C-0.12110894 184.03708544 -0.12196337 183.24297886 -0.12284368 182.42480844 C-0.12448317 179.77935738 -0.1190023 177.13397055 -0.11352539 174.48852539 C-0.11324316 172.58603924 -0.11340195 170.68355298 -0.1139679 168.78106689 C-0.11425448 163.62667755 -0.10838018 158.47231153 -0.10139394 153.3179276 C-0.09513729 147.92740196 -0.09455477 142.53687576 -0.09336853 137.14634705 C-0.09026203 126.94323484 -0.08205782 116.74013336 -0.07201904 106.53702587 C-0.06083675 94.91919002 -0.05534212 83.30135365 -0.05032361 71.68351376 C-0.03987465 47.78900186 -0.02153763 23.89450466 0 0 Z " fill="#B4D8FF" transform="translate(182,161)"/>
<path d="M0 0 C12.87 0 25.74 0 39 0 C39 89.43 39 178.86 39 271 C26.13 271 13.26 271 0 271 C0 181.57 0 92.14 0 0 Z " fill="#B4D8FF" transform="translate(417,459)"/>
<path d="M0 0 C12.87 0 25.74 0 39 0 C39 89.43 39 178.86 39 271 C26.13 271 13.26 271 0 271 C0 181.57 0 92.14 0 0 Z " fill="#B4D8FF" transform="translate(264,459)"/>
<path d="M0 0 C24.50597381 6.12649345 44.92614626 18.00814278 58.21728516 40.15185547 C71.13217211 62.48270256 75.23350753 87.04286205 69.03125 112.16796875 C62.61050977 135.58362344 47.30773987 154.98696725 26.3671875 167.21484375 C17.75390886 171.78128034 9.58642078 174.86968427 0 177 C0 163.47 0 149.94 0 136 C2.97 134.35 5.94 132.7 9 131 C20.94602561 123.00840669 27.4002336 112.86356318 31 99 C33.85921236 83.11548689 29.70996562 69.06494842 20.875 55.8125 C15.12423155 49.51849935 7.53972186 44.76986093 0 41 C0 27.47 0 13.94 0 0 Z " fill="#B4D8FF" transform="translate(375,172)"/>
<path d="M0 0 C0 13.53 0 27.06 0 41 C-3.63 42.98 -7.26 44.96 -11 47 C-22.1692771 55.4886506 -29.43725574 67.12914672 -32 81 C-33.61544189 96.91883367 -29.00350541 110.31490772 -19.484375 123.0234375 C-13.99250437 129.15325269 -7.41369555 131.76360254 0 136 C0 149.53 0 163.06 0 177 C-14.17676668 173.45580833 -14.17676668 173.45580833 -20.4375 170.4375 C-21.51463257 169.92195557 -21.51463257 169.92195557 -22.61352539 169.39599609 C-29.83195834 165.80080455 -35.94202504 161.28857974 -42 156 C-42.88171875 155.23042969 -43.7634375 154.46085938 -44.671875 153.66796875 C-61.41149825 137.99406685 -71.02653622 115.87022094 -72.203125 93.0625 C-72.51006189 77.17560175 -69.61972517 63.4296965 -63 49 C-62.33871094 47.55173828 -62.33871094 47.55173828 -61.6640625 46.07421875 C-51.56046019 25.8962153 -24.35779734 0 0 0 Z " fill="#B4D8FF" transform="translate(338,170)"/>
<path d="M0 0 C12.87 0 25.74 0 39 0 C39 58.41 39 116.82 39 177 C26.13 177 13.26 177 0 177 C0 118.59 0 60.18 0 0 Z " fill="#B4D8FF" transform="translate(341,553)"/>
<path d="M0 0 C12.87 0 25.74 0 39 0 C39 46.53 39 93.06 39 141 C26.13 141 13.26 141 0 141 C0 124.5 0 108 0 91 C-6.93 91 -13.86 91 -21 91 C-21 78.13 -21 65.26 -21 52 C-14.07 52 -7.14 52 0 52 C0 34.84 0 17.68 0 0 Z " fill="#B5D9FF" transform="translate(21,32)"/>
<path d="M0 0 C12.87 0 25.74 0 39 0 C39 17.16 39 34.32 39 52 C45.6 52 52.2 52 59 52 C59 64.87 59 77.74 59 91 C52.4 91 45.8 91 39 91 C39 107.5 39 124 39 141 C26.13 141 13.26 141 0 141 C0 94.47 0 47.94 0 0 Z " fill="#B4D8FF" transform="translate(649,32)"/>
</svg>
